<svg id="Layer_1" data-name="Layer 1" xmlns="http://www.w3.org/2000/svg" viewBox="0 0 1099.2 1099.2"><defs><style>.cls-1{fill:#d8d5c5;}.cls-1,.cls-3,.cls-4,.cls-5,.cls-6{stroke:#231f20;stroke-miterlimit:10;}.cls-1,.cls-3,.cls-4{stroke-width:4px;}.cls-2,.cls-5{fill:#231f20;}.cls-3{fill:#264653;}.cls-4{fill:#d6d7d8;}.cls-5{font-size:32.52px;stroke-width:0.25px;font-family:MyriadPro-Regular, Myriad Pro;}.cls-6{fill:#f4f1df;stroke-width:3px;}</style></defs><circle class="cls-1" cx="549.6" cy="549.6" r="455.93"/><path class="cls-2" d="M179.55,724.44l27.32-3.73,4.51,9.67L176,746.91l-3.12-6.66,27.49-12.85-1.44,1-25.46,2.83-3-6.48,18-17.49,2.17-.69-27.48,12.84L160,712.74l35.4-16.53,4.52,9.66Z"/><path class="cls-2" d="M181.11,756.42,223,749.88l2.7,4.38-24.61,34.5-4.58-7.42,17.3-22.76-28.11,5.26Zm9.47,3.43,6-3.73,11.88,19.24-6,3.73Z"/><path class="cls-2" d="M210.29,801.06,239,779.52l4.87,6.48-28.69,21.54Zm18.54-28.55,5.67-4.26,18.92,25.19-5.67,4.26Z"/><path class="cls-2" d="M228.82,824.89l28.76-26.44,5.48,6L234.3,830.85ZM243,816.94l5.23-4.8,16.94,18.43-5.23,4.8Zm1.73,25.27,28.77-26.44,5.48,6-28.77,26.44Z"/><path class="cls-2" d="M261.19,858.74,287,829.43l6.07,5.36-25.83,29.3Zm2.2,1.93,4.69-5.32,19.4,17.1-4.69,5.32Zm10.48-11.89,4.69-5.32,17,14.95-4.69,5.32Zm10.66-12.09,4.69-5.32,19.4,17.1-4.69,5.32Z"/><path class="cls-2" d="M315.94,886.56l21.79-16.9,8.75,6.11-22.38,32-6-4.22,17.37-24.87-.74,1.58-20.63,15.19-5.87-4.1,6.86-24.16,1.53-1.68-17.37,24.87-6-4.21,22.38-32,8.75,6.11Z"/><path class="cls-2" d="M333.27,913.45l33-26.59,4.52,2.44-4.06,42.19-7.68-4.14,3.6-28.37-21.71,18.61Zm9.91-1.76,3.37-6.25,19.9,10.73-3.36,6.24Z"/><path class="cls-2" d="M380.89,937.54l14.05-33,7.45,3.17-14.05,33Zm1.75-34,2.78-6.52,29,12.34-2.78,6.52Z"/><path class="cls-2" d="M428.41,914l-12.77,36.92-7.93-2.74,12.77-36.92Z"/><path class="cls-2" d="M443,959.44a18.84,18.84,0,0,1-7.7-3.78,11.93,11.93,0,0,1-3.87-6.15,15.77,15.77,0,0,1,.22-8.09l2.71-10.37a15.84,15.84,0,0,1,3.78-7.18,12.11,12.11,0,0,1,6.39-3.47,18.75,18.75,0,0,1,8.57.47,16.1,16.1,0,0,1,6.62,3.37,13.75,13.75,0,0,1,3.92,5.78,18.57,18.57,0,0,1,.94,7.79l-8.12-2.12a9.35,9.35,0,0,0-.58-3.58,6.73,6.73,0,0,0-1.79-2.62,6.6,6.6,0,0,0-2.86-1.5,7.08,7.08,0,0,0-5.58.5,7.23,7.23,0,0,0-3.17,4.68l-2.71,10.37a7.24,7.24,0,0,0,.47,5.63,7.08,7.08,0,0,0,4.63,3.15,6.6,6.6,0,0,0,4.75-.41,8.27,8.27,0,0,0,3.57-3.74l8.13,2.12a19,19,0,0,1-4.67,6.32,13.78,13.78,0,0,1-6.24,3.13A15.92,15.92,0,0,1,443,959.44Z"/><path class="cls-2" d="M482.91,967.77a31.67,31.67,0,0,1-5.86-1.5,27,27,0,0,1-5.19-2.48,22.76,22.76,0,0,1-4.17-3.31l4.65-5.42a18.66,18.66,0,0,0,5.22,3.72,22.18,22.18,0,0,0,6.44,2,12.7,12.7,0,0,0,6.26-.25,3.79,3.79,0,0,0,2.7-3.07v0a3.18,3.18,0,0,0-.67-2.73,7.09,7.09,0,0,0-2.64-1.76c-1.14-.47-2.38-.91-3.73-1.32q-2.43-.74-4.89-1.65a17.91,17.91,0,0,1-4.41-2.38,8.93,8.93,0,0,1-2.92-3.77,10.6,10.6,0,0,1-.42-5.8v0a10.43,10.43,0,0,1,5.46-8.1q4.58-2.46,12.05-1.28a25.15,25.15,0,0,1,6.85,2.15,26.56,26.56,0,0,1,6.15,4l-4.35,5.63a21.24,21.24,0,0,0-4.75-3.21,17.06,17.06,0,0,0-5-1.64,12.19,12.19,0,0,0-5.87.2,3.45,3.45,0,0,0-2.5,2.78v0a3.43,3.43,0,0,0,.75,3,8.09,8.09,0,0,0,2.9,1.91c1.24.51,2.58,1,4,1.51q2.38.81,4.71,1.82a17.52,17.52,0,0,1,4.16,2.49,9,9,0,0,1,2.71,3.71,10.62,10.62,0,0,1,.36,5.5v.05a10.17,10.17,0,0,1-5.59,8C492.19,968.18,488,968.57,482.91,967.77Z"/><path class="cls-2" d="M546.07,972.94a31.32,31.32,0,0,1-6-.66,27.52,27.52,0,0,1-5.49-1.74,22.8,22.8,0,0,1-4.6-2.7l3.86-6a18.91,18.91,0,0,0,5.68,3,22.79,22.79,0,0,0,6.67,1.11,12.75,12.75,0,0,0,6.16-1.12,3.81,3.81,0,0,0,2.25-3.42v0a3.22,3.22,0,0,0-1.06-2.61,7,7,0,0,0-2.86-1.37,39.31,39.31,0,0,0-3.87-.79q-2.5-.39-5.07-1a17.14,17.14,0,0,1-4.7-1.74,8.86,8.86,0,0,1-3.42-3.32,10.69,10.69,0,0,1-1.22-5.69v0a10.44,10.44,0,0,1,4.28-8.78q4.19-3.06,11.75-2.94a25.39,25.39,0,0,1,7.08,1.17,26.41,26.41,0,0,1,6.66,3.14l-3.53,6.17a21.71,21.71,0,0,0-5.15-2.51,16.93,16.93,0,0,0-5.17-.93,12.2,12.2,0,0,0-5.78,1,3.44,3.44,0,0,0-2.09,3.1v0a3.42,3.42,0,0,0,1.16,2.87,8.13,8.13,0,0,0,3.14,1.49c1.3.33,2.69.65,4.18.94q2.48.46,4.92,1.14a17.67,17.67,0,0,1,4.46,1.89,8.82,8.82,0,0,1,3.2,3.3,10.54,10.54,0,0,1,1.13,5.39v.06a10.18,10.18,0,0,1-4.43,8.67C555.32,972.06,551.27,973,546.07,972.94Z"/><path class="cls-2" d="M566.89,940.5l-.6-7.07,31.4-2.67.6,7.07Zm14.38,30.87-3-35.75,8.07-.68,3,35.74Z"/><path class="cls-2" d="M624.91,966.16q-7.36,1.33-12.07-1.67c-3.13-2-5.12-5.28-5.94-9.83l-4.46-24.53,8-1.45,4.49,24.72a6.79,6.79,0,0,0,2.88,4.77,7.86,7.86,0,0,0,5.83.83,8,8,0,0,0,5.21-2.83,6.8,6.8,0,0,0,1-5.49L625.36,926l8-1.44,4.46,24.53q1.25,6.83-2.12,11.3T624.91,966.16Z"/><path class="cls-2" d="M654,959.66,643,922.19l7.77-2.29,11.07,37.47ZM658,958.5l-2-6.8,9.9-2.92a9.62,9.62,0,0,0,5.42-3.44A6,6,0,0,0,672,940l-3.26-11a6,6,0,0,0-3.49-4.12,9.66,9.66,0,0,0-6.42.08l-9.9,2.92-2-6.8,9.73-2.88q7.75-2.29,13,0t7.16,8.65L680,937.41a14,14,0,0,1,.26,7.56,12.56,12.56,0,0,1-4,6.31,22.26,22.26,0,0,1-8.53,4.36Z"/><path class="cls-2" d="M696.83,946.13,682,910l7.48-3.08,14.88,36.12Zm-9.47-30.68-2.7-6.56,23.92-9.84,2.7,6.56Zm6.14,14.91-2.7-6.56,20.91-8.61,2.7,6.56Zm6,14.66-2.7-6.56,23.91-9.85,2.7,6.56Z"/><path class="cls-2" d="M735.41,929.51l-18.66-34.29,8.7-4.74,28.35,18.65-.29,1-14.64-26.91,6.8-3.7,18.66,34.29-8.75,4.76L727.5,900.26l.29-1,14.42,26.51Z"/><path class="cls-2" d="M756.15,881.32l-4-5.85,26-17.85,4,5.84ZM783.91,901l-20.33-29.56,6.67-4.59,20.33,29.56Z"/><path class="cls-2" d="M818,876a31.71,31.71,0,0,1-5,3.41,26.9,26.9,0,0,1-5.29,2.26,22.58,22.58,0,0,1-5.24,1l-1-7.07a18.88,18.88,0,0,0,6.24-1.47,22.43,22.43,0,0,0,5.77-3.5,12.76,12.76,0,0,0,4-4.87,3.81,3.81,0,0,0-.53-4.06l0,0a3.19,3.19,0,0,0-2.5-1.29,7,7,0,0,0-3.06.82c-1.1.54-2.25,1.19-3.45,1.93q-2.16,1.34-4.47,2.58a17.67,17.67,0,0,1-4.7,1.75,9,9,0,0,1-4.76-.29,10.74,10.74,0,0,1-4.64-3.52v0a10.44,10.44,0,0,1-2.49-9.45q1.19-5.05,7-9.89a25,25,0,0,1,6.13-3.73,26.66,26.66,0,0,1,7.09-2l1.35,7a21.62,21.62,0,0,0-5.54,1.45,17.26,17.26,0,0,0-4.53,2.67,12.19,12.19,0,0,0-3.72,4.54,3.44,3.44,0,0,0,.44,3.71l0,0a3.42,3.42,0,0,0,2.75,1.42,8,8,0,0,0,3.35-.92c1.2-.59,2.46-1.26,3.78-2s3-1.61,4.48-2.34a17.93,17.93,0,0,1,4.61-1.48,9,9,0,0,1,4.58.42,10.5,10.5,0,0,1,4.37,3.36l0,0a10.13,10.13,0,0,1,2.3,9.46Q824,871,818,876Z"/><path class="cls-2" d="M864.53,830.86a18.87,18.87,0,0,1-6.86,5.15,12,12,0,0,1-7.24.67,15.87,15.87,0,0,1-7.11-3.86l-8-7.12a15.86,15.86,0,0,1-4.69-6.61,12.09,12.09,0,0,1-.2-7.27,18.76,18.76,0,0,1,4.3-7.43,16,16,0,0,1,6-4.38,13.91,13.91,0,0,1,6.93-.88,18.58,18.58,0,0,1,7.38,2.7l-5.58,6.27A9.26,9.26,0,0,0,846,807a6.65,6.65,0,0,0-5.78,2.28,7.09,7.09,0,0,0-2.08,5.21,7.25,7.25,0,0,0,2.74,4.94l8,7.12a7.21,7.21,0,0,0,5.22,2.13A7.12,7.12,0,0,0,859,826a6.62,6.62,0,0,0,1.79-4.42,8.29,8.29,0,0,0-1.72-4.88l5.57-6.28a19,19,0,0,1,3.53,7,13.86,13.86,0,0,1,0,7A16,16,0,0,1,864.53,830.86Z"/><path class="cls-2" d="M882.07,809.33l-31.59-23,4.76-6.55,31.6,23Zm2.12-2.91-5.73-4.18,14.81-20.36,5.74,4.17Z"/><path class="cls-2" d="M912.61,764.53q-3.78,6.45-9.13,8.06t-11.33-1.89l-21.51-12.6,4.09-7,21.68,12.7a6.77,6.77,0,0,0,5.5.92,7.81,7.81,0,0,0,4.42-3.88,8,8,0,0,0,1.25-5.79,6.77,6.77,0,0,0-3.49-4.36L882.41,738l4.1-7L908,743.62q6,3.5,7.19,9T912.61,764.53Z"/><path class="cls-2" d="M926.64,738.23,891,722.17l3.33-7.38L930,730.85ZM928.1,735l-6.47-2.92,5.64-12.5a6.68,6.68,0,0,0,.65-4.42,4.15,4.15,0,0,0-2.5-2.8l-.07,0a4.17,4.17,0,0,0-3.77,0,6.77,6.77,0,0,0-2.89,3.41l-5.63,12.51-6.47-2.92,5.64-12.5a5.84,5.84,0,0,0,.54-4,4,4,0,0,0-2.4-2.59,3.46,3.46,0,0,0-3.24,0,6.32,6.32,0,0,0-2.54,3.12L899,721.85l-6.47-2.91,5.75-12.75q2.58-5.72,6.51-7.71a9.47,9.47,0,0,1,8.55.08,7.61,7.61,0,0,1,4.22,4.32,10.71,10.71,0,0,1,0,6.83,10.76,10.76,0,0,1,5.43-4.82,8.73,8.73,0,0,1,6.74.45l.07,0a9.49,9.49,0,0,1,5.74,6.38q1.13,4.29-1.47,10Z"/><path class="cls-2" d="M210,368l-38.13-22.73,4.71-7.9L214.72,360Zm-2.12-9.08-9.94-4.56-13.21-30.67,5.93-9.95ZM224.26,344l-26.56.67.15-9.14,32-.91Z"/><path class="cls-2" d="M231.65,332.06,208,290.12l3.57-4.63,46.54,12.41L252,305.74l-31.13-9.32,16.82,27.8Zm-.13-11.45-6.38-4.93,15.73-20.32,6.37,4.94Z"/><path class="cls-2" d="M232.38,272.44l-5.82-5.57L251.29,241l5.83,5.57Zm35.47,15.48-29.48-28.15,6.36-6.66,29.47,28.16Z"/><path class="cls-2" d="M289.18,266.23l-28.43-34.1,7.06-5.89,28.44,34.09Zm-8.24-16.55-5.16-6.19,21.84-18.22,5.17,6.19Zm28.77-.58L281.28,215l7.06-5.9,28.44,34.1Z"/><path class="cls-2" d="M337.69,211.72l-8-30.3L340,175l23.56,37.63-7.09,4.44-18.3-29.22,1.33,1.48,6.71,28.32L339.3,222l-22.22-17.9L316,201.7l18.29,29.22-7.09,4.43-23.56-37.63,10.28-6.43Z"/><path class="cls-2" d="M370.35,208.93,369,160.79l5.31-2.43L409.67,191l-9,4.11-23.2-22.75,1.92,32.43Zm5.22-10.19-3.34-7.34,23.38-10.64,3.34,7.33Z"/><path class="cls-2" d="M417.62,188.17l-13.09-42.39,10.75-3.32,27.4,27.14-.54,1-10.27-33.26,8.41-2.59,13.09,42.38-10.81,3.35-27.19-26.66.54-1L426,185.57Z"/><path class="cls-2" d="M466.18,174.18l-7.57-43.74,9.07-1.57,7.57,43.74Zm4.57-.79-1.37-7.94,11.55-2c3-.52,5.17-1.57,6.57-3.17a6.79,6.79,0,0,0,1.5-5.94l-2.23-12.88a6.78,6.78,0,0,0-3.41-5.11c-1.86-1-4.28-1.28-7.26-.76l-11.55,2-1.37-7.94,11.35-2q9.06-1.56,14.73,1.68t6.95,10.71l2.14,12.4a15.82,15.82,0,0,1-.7,8.57,14.28,14.28,0,0,1-5.38,6.6,25.32,25.32,0,0,1-10.2,3.79Z"/><path class="cls-2" d="M529,166.58q-8.49.43-13.36-3.64T510.38,151l-1.46-28.3,9.19-.47,1.47,28.51a7.72,7.72,0,0,0,2.55,5.8,10.72,10.72,0,0,0,12.73-.66,7.68,7.68,0,0,0,2-6l-1.47-28.52,9.19-.47,1.46,28.3q.4,7.86-4,12.42T529,166.58Z"/><path class="cls-2" d="M597.9,169.11q-8.43-1.06-12.5-5.93t-3.08-12.69l3.56-28.11,9.13,1.16-3.59,28.32a7.73,7.73,0,0,0,1.49,6.16,8.91,8.91,0,0,0,6,2.88,9.06,9.06,0,0,0,6.62-1.28,7.72,7.72,0,0,0,3-5.59l3.59-28.33,9.13,1.16L617.71,155q-1,7.82-6.17,11.52T597.9,169.11Z"/><path class="cls-2" d="M627.32,173l11.07-43,10.89,2.81,9.11,37.47-1,.57,8.68-33.71,8.52,2.2-11.07,43-11-2.82-9.17-37,1-.56-8.55,33.2Z"/><path class="cls-2" d="M699.65,148.31l-15.1,41.75-9-3.25,15.1-41.75Z"/><path class="cls-2" d="M708,199.79l4-47.11,8.59,4-3.09,31.23,21.91-22.47,8.58,4-33.46,33.4Z"/><path class="cls-2" d="M736.71,214l23.17-37.87,7.85,4.8-23.17,37.87Zm2.84,1.74,4.21-6.88,25.06,15.34-4.2,6.88Zm9.4-15.37,4.21-6.88,21.91,13.41-4.2,6.88Zm9.56-15.63,4.21-6.87,25.07,15.34-4.21,6.87Z"/><path class="cls-2" d="M773.52,237.29,801,202.38l7.23,5.7L780.75,243Zm13.93-11.77,5-6.33,13.36,10.51a4.41,4.41,0,0,0,3.59,1,5.62,5.62,0,0,0,3.39-2.15,5.48,5.48,0,0,0,1.32-3.78,4.45,4.45,0,0,0-1.84-3.28L798.89,211l5-6.33,13.93,11a14.7,14.7,0,0,1,4.57,5.69,11.64,11.64,0,0,1,.83,6.56,15.27,15.27,0,0,1-8.66,11,11.85,11.85,0,0,1-6.58.73,14.64,14.64,0,0,1-6.59-3.09Zm6.34,27.73,2.58-22.45,8.6,5-2.42,24.36Z"/><path class="cls-2" d="M819.76,277.49a36.5,36.5,0,0,1-4.4-5.27,31.3,31.3,0,0,1-3.11-5.75,25.4,25.4,0,0,1-1.64-5.83l7.89-1.88a21.48,21.48,0,0,0,2.32,6.9,25.52,25.52,0,0,0,4.58,6.16,14.4,14.4,0,0,0,5.93,3.94,4.31,4.31,0,0,0,4.53-1l0,0a3.57,3.57,0,0,0,1.2-3,8.06,8.06,0,0,0-1.26-3.38q-1.1-1.78-2.55-3.7c-1.16-1.53-2.29-3.13-3.39-4.78a19.85,19.85,0,0,1-2.48-5.13,10.17,10.17,0,0,1-.18-5.42,12.22,12.22,0,0,1,3.48-5.62l0,0q4.59-4.6,10.43-3.82t11.94,6.86a28.43,28.43,0,0,1,4.87,6.54,30,30,0,0,1,3,7.81l-7.76,2.28a24.31,24.31,0,0,0-2.23-6.12,19.86,19.86,0,0,0-3.5-4.84,13.84,13.84,0,0,0-5.54-3.72,3.92,3.92,0,0,0-4.15.89l0,0a3.9,3.9,0,0,0-1.31,3.27,9.16,9.16,0,0,0,1.4,3.69q1.2,1.94,2.68,4.07c1.11,1.55,2.15,3.16,3.13,4.81a20.29,20.29,0,0,1,2.17,5.06,10.15,10.15,0,0,1,0,5.22,11.87,11.87,0,0,1-3.33,5.3l0,.05A11.56,11.56,0,0,1,832,284.68Q826.05,283.75,819.76,277.49Z"/><path class="cls-2" d="M879.59,276.49l-33.86,28.72-6.17-7.28,33.86-28.72Z"/><path class="cls-2" d="M859.38,322.71,892.52,299l5.36,7.48-33.14,23.74Zm21.79-32,6.56-4.7,20.85,29.11L902,319.84Z"/><path class="cls-2" d="M931.85,355.11l-30.81,1-14.89,8.46-4.55-8,14.9-8.46,16.6-26,4.77,8.38-12,17.56,21.23-1.32Z"/><circle class="cls-3" cx="549.6" cy="549.6" r="352.04"/><circle class="cls-4" cx="549.6" cy="552.04" r="270.12"/><text class="cls-5" transform="matrix(-1.32, -0.29, 0.21, -0.98, 510.21, 786.45)">0</text><text class="cls-5" transform="matrix(-1.3, -0.37, 0.28, -0.96, 488.59, 781.53)"> </text><text class="cls-5" transform="matrix(-1.28, -0.42, 0.31, -0.95, 479.84, 779.02)"> </text><text class="cls-5" transform="translate(471.25 776.44) rotate(-158.04) scale(1.35 1)">1</text><text class="cls-5" transform="matrix(-1.22, -0.59, 0.43, -0.9, 450.77, 767.96)"> </text><text class="cls-5" transform="matrix(-1.19, -0.63, 0.47, -0.88, 442.58, 764.02)"> </text><text class="cls-5" transform="translate(434.55 760.03) rotate(-148.3) scale(1.35 1)">0</text><text class="cls-5" transform="matrix(-1.1, -0.78, 0.58, -0.81, 415.8, 748.2)"> </text><text class="cls-5" transform="translate(408.39 742.92) rotate(-142.3) scale(1.35 1)"> </text><text class="cls-5" transform="translate(401.16 737.63) rotate(-138.53) scale(1.35 1)">0</text><text class="cls-5" transform="matrix(-0.95, -0.96, 0.71, -0.7, 384.68, 722.79)"> </text><text class="cls-5" transform="matrix(-0.91, -0.99, 0.74, -0.68, 378.27, 716.33)"> </text><text class="cls-5" transform="translate(372.06 709.9) rotate(-128.85) scale(1.35 1)">0</text><text class="cls-5" transform="matrix(-0.78, -1.1, 0.82, -0.58, 358.29, 692.48)"> </text><text class="cls-5" transform="matrix(-0.74, -1.13, 0.84, -0.54, 353.05, 685.05)"> </text><text class="cls-5" transform="matrix(-0.66, -1.18, 0.87, -0.49, 347.98, 677.66)">0</text><text class="cls-5" transform="matrix(-0.58, -1.22, 0.9, -0.43, 337.33, 658.22)"> </text><text class="cls-5" transform="matrix(-0.53, -1.24, 0.92, -0.4, 333.41, 650)"> </text><text class="cls-5" transform="translate(329.65 641.85) rotate(-109.49) scale(1.35 1)">1</text><text class="cls-5" transform="matrix(-0.37, -1.3, 0.96, -0.27, 322.46, 620.91)"> </text><text class="cls-5" transform="translate(320 612.16) rotate(-103.5) scale(1.35 1)"> </text><text class="cls-5" transform="matrix(-0.23, -1.33, 0.99, -0.17, 317.68, 603.47)">1</text><text class="cls-5" transform="translate(314.14 581.6) rotate(-95.96) scale(1.35 1)"> </text><text class="cls-5" transform="translate(313.19 572.57) rotate(-93.77) scale(1.35 1)"> </text><text class="cls-5" transform="translate(312.59 563.48) rotate(-91.58) scale(1.35 1)"> </text><text class="cls-5" transform="matrix(0.01, -1.35, 1, 0.01, 312.33, 554.38)"> </text><text class="cls-5" transform="matrix(0.07, -1.35, 1, 0.05, 312.42, 545.27)"> </text><text class="cls-5" transform="translate(312.86 536.17) rotate(-85.02) scale(1.35 1)"> </text><text class="cls-5" transform="matrix(0.17, -1.34, 0.99, 0.12, 313.65, 527.13)"> </text><text class="cls-5" transform="translate(314.54 518.18) rotate(-79.11) scale(1.35 1)">0</text><text class="cls-5" transform="translate(318.93 496.47) rotate(-75.37) scale(1.35 1)"> </text><text class="cls-5" transform="translate(321.23 487.65) rotate(-73.18) scale(1.35 1)"> </text><text class="cls-5" transform="matrix(0.47, -1.26, 0.94, 0.35, 323.6, 479)">1</text><text class="cls-5" transform="translate(331.57 458.34) rotate(-65.68) scale(1.35 1)"> </text><text class="cls-5" transform="matrix(0.6, -1.21, 0.89, 0.45, 335.33, 450.03)"> </text><text class="cls-5" transform="matrix(0.68, -1.17, 0.86, 0.5, 339.12, 441.91)">0</text><text class="cls-5" transform="matrix(0.76, -1.12, 0.83, 0.56, 350.48, 422.88)"> </text><text class="cls-5" transform="translate(355.58 415.33) rotate(-53.71) scale(1.35 1)"> </text><text class="cls-5" transform="matrix(0.87, -1.03, 0.77, 0.64, 360.7, 407.98)">0</text><text class="cls-5" transform="matrix(0.94, -0.97, 0.72, 0.69, 375.12, 391.15)"> </text><text class="cls-5" transform="matrix(0.97, -0.94, 0.69, 0.72, 381.42, 384.58)"> </text><text class="cls-5" transform="translate(387.72 378.2) rotate(-40.23) scale(1.35 1)">1</text><text class="cls-5" transform="translate(404.72 364.04) rotate(-36.13) scale(1.35 1)"> </text><text class="cls-5" transform="matrix(1.11, -0.76, 0.56, 0.83, 412.1, 358.61)"> </text><text class="cls-5" transform="translate(419.37 353.36) rotate(-30.64) scale(1.35 1)">1</text><text class="cls-5" transform="matrix(1.2, -0.61, 0.45, 0.89, 438.54, 342.24)"> </text><text class="cls-5" transform="matrix(1.23, -0.56, 0.42, 0.91, 446.67, 338.12)"> </text><text class="cls-5" transform="translate(454.71 334.18) rotate(-20.89) scale(1.35 1)">0</text><text class="cls-5" transform="translate(475.48 326.47) rotate(-17.11) scale(1.35 1)"> </text><text class="cls-5" transform="translate(484.19 323.78) rotate(-14.89) scale(1.35 1)"> </text><text class="cls-5" transform="matrix(1.32, -0.26, 0.19, 0.98, 492.8, 321.26)">1</text><text class="cls-5" transform="matrix(1.34, -0.17, 0.13, 0.99, 514.56, 317.19)"> </text><text class="cls-5" transform="matrix(1.34, -0.12, 0.09, 1, 523.57, 316.02)"> </text><text class="cls-5" transform="matrix(1.35, -0.07, 0.05, 1, 532.66, 315.2)"> </text><text class="cls-5" transform="matrix(1.35, -0.02, 0.01, 1, 541.75, 314.72)"> </text><text class="cls-5" transform="matrix(1.35, 0.03, -0.02, 1, 550.84, 314.6)"> </text><text class="cls-5" transform="translate(559.93 314.81) rotate(3.59) scale(1.35 1)"> </text><text class="cls-5" transform="translate(569.04 315.38) rotate(5.78) scale(1.35 1)"> </text><text class="cls-5" transform="translate(577.95 316.06) rotate(9.51) scale(1.35 1)">0</text><text class="cls-5" transform="matrix(1.31, 0.31, -0.23, 0.97, 599.8, 319.93)"> </text><text class="cls-5" transform="matrix(1.3, 0.36, -0.27, 0.96, 608.65, 322)"> </text><text class="cls-5" transform="matrix(1.28, 0.44, -0.33, 0.94, 617.37, 324.17)">1</text><text class="cls-5" transform="translate(638.24 331.65) rotate(22.93) scale(1.35 1)"> </text><text class="cls-5" transform="matrix(1.22, 0.57, -0.42, 0.91, 646.61, 335.18)"> </text><text class="cls-5" transform="matrix(1.18, 0.65, -0.48, 0.88, 654.81, 338.78)">0</text><text class="cls-5" transform="matrix(1.14, 0.73, -0.54, 0.84, 674.12, 349.67)"> </text><text class="cls-5" transform="matrix(1.11, 0.77, -0.57, 0.82, 681.79, 354.59)"> </text><text class="cls-5" transform="matrix(1.05, 0.84, -0.62, 0.78, 689.27, 359.52)">0</text><text class="cls-5" transform="translate(706.45 373.54) rotate(42.45) scale(1.35 1)"> </text><text class="cls-5" transform="matrix(0.96, 0.95, -0.7, 0.71, 713.16, 379.67)"> </text><text class="cls-5" transform="matrix(0.9, 1.01, -0.75, 0.66, 719.69, 385.8)">0</text><text class="cls-5" transform="translate(734.27 402.54) rotate(52.01) scale(1.35 1)"> </text><text class="cls-5" transform="translate(739.87 409.72) rotate(54.26) scale(1.35 1)"> </text><text class="cls-5" transform="matrix(0.72, 1.14, -0.85, 0.53, 745.29, 416.86)">1</text><text class="cls-5" transform="matrix(0.64, 1.19, -0.88, 0.47, 756.87, 435.76)"> </text><text class="cls-5" transform="matrix(0.59, 1.21, -0.9, 0.44, 761.18, 443.77)"> </text><text class="cls-5" transform="matrix(0.51, 1.25, -0.93, 0.38, 765.32, 451.71)">0</text><text class="cls-5" transform="matrix(0.43, 1.28, -0.95, 0.32, 773.54, 472.29)"> </text><text class="cls-5" transform="translate(776.44 480.93) rotate(73.7) scale(1.35 1)"> </text><text class="cls-5" transform="translate(779.17 489.48) rotate(77.49) scale(1.35 1)">0</text><text class="cls-5" transform="translate(783.77 511.14) rotate(81.25) scale(1.35 1)"> </text><text class="cls-5" transform="translate(785.16 520.14) rotate(83.45) scale(1.35 1)"> </text><text class="cls-5" transform="matrix(0.1, 1.35, -1, 0.08, 786.2, 529.18)"> </text><text class="cls-5" transform="matrix(0.05, 1.35, -1, 0.04, 786.9, 538.27)"> </text><text class="cls-5" transform="matrix(0, 1.35, -1, 0, 787.25, 547.36)"> </text><text class="cls-5" transform="translate(787.25 556.45) rotate(92.21) scale(1.35 1)"> </text><text class="cls-5" transform="translate(786.9 565.53) rotate(94.39) scale(1.35 1)"> </text><text class="cls-5" transform="translate(786.44 574.51) rotate(98.13) scale(1.35 1)">0</text><text class="cls-5" transform="translate(783.1 596.42) rotate(101.86) scale(1.35 1)"> </text><text class="cls-5" transform="translate(781.23 605.34) rotate(104.05) scale(1.35 1)"> </text><text class="cls-5" transform="translate(779.28 614.09) rotate(107.79) scale(1.35 1)">1</text><text class="cls-5" transform="translate(772.31 635.12) rotate(111.54) scale(1.35 1)"> </text><text class="cls-5" transform="translate(768.98 643.58) rotate(113.73) scale(1.35 1)"> </text><text class="cls-5" transform="translate(765.58 651.89) rotate(117.5) scale(1.35 1)">0</text><text class="cls-5" transform="matrix(-0.7, 1.15, -0.85, -0.52, 755.17, 671.45)"> </text><text class="cls-5" transform="matrix(-0.74, 1.13, -0.83, -0.55, 750.43, 679.24)"> </text><text class="cls-5" transform="matrix(-0.82, 1.07, -0.8, -0.61, 745.69, 686.84)">1</text><text class="cls-5" transform="translate(732.11 704.33) rotate(131.05) scale(1.35 1)"> </text><text class="cls-5" transform="translate(726.12 711.22) rotate(133.26) scale(1.35 1)"> </text><text class="cls-5" transform="matrix(-0.99, 0.92, -0.68, -0.73, 720.15, 717.9)">0</text><text class="cls-5" transform="matrix(-1.05, 0.85, -0.63, -0.77, 703.79, 732.86)"> </text><text class="cls-5" transform="translate(696.76 738.53) rotate(142.01) scale(1.35 1)"> </text><text class="cls-5" transform="matrix(-1.13, 0.74, -0.55, -0.83, 689.72, 744.22)">0</text><text class="cls-5" transform="matrix(-1.17, 0.67, -0.5, -0.87, 671.13, 756.24)"> </text><text class="cls-5" transform="matrix(-1.2, 0.62, -0.46, -0.89, 663.22, 760.75)"> </text><text class="cls-5" transform="translate(655.37 765.09) rotate(156.3) scale(1.35 1)">1</text><text class="cls-5" transform="translate(634.97 773.82) rotate(160.09) scale(1.35 1)"> </text><text class="cls-5" transform="matrix(-1.29, 0.41, -0.3, -0.95, 626.43, 776.91)"> </text><text class="cls-5" transform="matrix(-1.31, 0.32, -0.24, -0.97, 617.96, 779.86)">1</text><circle class="cls-6" cx="549.6" cy="552.04" r="226.55"/><path class="cls-2" d="M621,458h24.93a7.69,7.69,0,0,0,7.69-7.69V432.78a7.69,7.69,0,0,0-7.69-7.69H452.44a7.69,7.69,0,0,0-7.69,7.69v7.06a7.59,7.59,0,0,0,.71,3.21l38.64,83.84a7.71,7.71,0,0,1,0,6.44l-38.64,83.61a7.63,7.63,0,0,0-.71,3.22v7.52a7.69,7.69,0,0,0,7.69,7.69H645.93a7.69,7.69,0,0,0,7.69-7.69V608.79a7.68,7.68,0,0,0-7.69-7.68H620a7.69,7.69,0,0,0-7.69,7.68v.12a7.69,7.69,0,0,1-7.68,7.69H499.07a7.69,7.69,0,0,1-7-11l33.72-72.15a7.65,7.65,0,0,0,0-6.53l-34.61-73.55a7.69,7.69,0,0,1,7-11H605.63a7.69,7.69,0,0,1,7.68,7.74h0A7.69,7.69,0,0,0,621,458Z"/><path class="cls-2" d="M641.89,415.24s-9.86,6.1-5.17,14.55a7,7,0,0,0,6.85,3.75c7.8-.29,12.89-8.59,10.11-15.89-1.49-3.92-4.75-8.29-11.33-12.27-17.83-10.8-52.56-.47-57.73,49.75s-13.14,153.49-13.14,153.49S570.16,649,550.17,651.8c0,0-11.9,2.58-17.53-6.1,0,0,9.06-4.37,6.05-10.33H520.44s.93,22.06,26.52,22.3,37.43-25.82,37.43-25.82,6.1-8.68,7.86-29.45,12.32-157.71,12.32-157.71,3.49-37.64,23.59-36.26C628.16,408.43,639.77,407.26,641.89,415.24Z"/><polygon class="cls-2" points="587.44 425.09 614.7 425.09 604.84 442.46 582.05 442.46 587.44 425.09"/><path class="cls-2" d="M449,712.54V681.39h5.87v31.15Zm2.12-25.5v-5.65h18.75V687Zm0,12.86v-5.66h16.39v5.66Zm0,12.64v-5.66h18.75v5.66Z"/><path class="cls-2" d="M485,712.86a21,21,0,0,1-4.36-.45,18.59,18.59,0,0,1-4-1.32,15.81,15.81,0,0,1-3.36-2.08l2.72-4.85a13,13,0,0,0,4.16,2.28,14.77,14.77,0,0,0,4.84.81,8.55,8.55,0,0,0,4.46-1,3.06,3.06,0,0,0,1.58-2.75v0a2.65,2.65,0,0,0-.79-2.07,4.91,4.91,0,0,0-2.09-1.06,27.39,27.39,0,0,0-2.82-.58c-1.21-.18-2.44-.42-3.68-.69a12.24,12.24,0,0,1-3.43-1.33,6.88,6.88,0,0,1-2.52-2.61,9.26,9.26,0,0,1-.95-4.52v0a8.67,8.67,0,0,1,3-7.06c2-1.66,4.83-2.5,8.48-2.5a16.83,16.83,0,0,1,5.15.85,18.38,18.38,0,0,1,4.86,2.41l-2.49,5a15.1,15.1,0,0,0-3.76-1.94,11.49,11.49,0,0,0-3.76-.67,8,8,0,0,0-4.17.89,2.76,2.76,0,0,0-1.48,2.49v0a2.88,2.88,0,0,0,.88,2.28,5.6,5.6,0,0,0,2.29,1.14c.94.25,2,.48,3,.7s2.39.51,3.58.85a12.12,12.12,0,0,1,3.26,1.44,6.77,6.77,0,0,1,2.35,2.59,9.06,9.06,0,0,1,.88,4.29v0a8.4,8.4,0,0,1-3.11,7Q490.69,712.87,485,712.86Z"/><path class="cls-2" d="M498,687v-5.65h22.84V687Zm8.49,25.5V683.93h5.87v28.61Z"/><path class="cls-2" d="M524.24,712.54V681.39h5.87v31.15Zm3,0v-5.66h7.48a6.52,6.52,0,0,0,4.48-1.4,5,5,0,0,0,1.58-3.93v-9.17a5,5,0,0,0-1.58-4,6.62,6.62,0,0,0-4.48-1.39H527.2v-5.65h7.35c3.91,0,6.94,1,9.07,2.92s3.21,4.7,3.21,8.24v8.83a12.08,12.08,0,0,1-1.37,5.84,9.57,9.57,0,0,1-4.11,3.92,14.89,14.89,0,0,1-6.82,1.4Z"/><path class="cls-2" d="M550.36,712.54v-5.87h5.87v5.87Z"/><path class="cls-2" d="M572.37,712.54v-5.29l10.69-14.06a8,8,0,0,0,1.13-1.94,5.08,5.08,0,0,0,.39-1.85v0a2.39,2.39,0,0,0-.81-2,3.49,3.49,0,0,0-2.32-.69,3.12,3.12,0,0,0-2.34.95,4.53,4.53,0,0,0-1.11,2.71v0h-6v0a10.11,10.11,0,0,1,2.84-6.87,9.12,9.12,0,0,1,6.59-2.45,10,10,0,0,1,6.8,2.12,7.58,7.58,0,0,1,2.42,6v0a12.66,12.66,0,0,1-.74,4.21,13.6,13.6,0,0,1-2.07,3.78l-7.67,9.68H590.8v5.66Z"/><path class="cls-2" d="M604.83,712.86c-3.1,0-5.43-.79-7-2.39a8.82,8.82,0,0,1-2.34-6.46V689.85a8.77,8.77,0,0,1,2.36-6.49c1.57-1.58,3.89-2.36,7-2.36s5.41.78,7,2.35a8.79,8.79,0,0,1,2.34,6.5V704a8.8,8.8,0,0,1-2.35,6.5Q609.43,712.87,604.83,712.86Zm0-5.65a2.91,2.91,0,0,0,2.65-1.26,6.37,6.37,0,0,0,.8-3.44V691.35a6.38,6.38,0,0,0-.8-3.45,3.43,3.43,0,0,0-5.28,0,6.2,6.2,0,0,0-.82,3.45v11.16a6.19,6.19,0,0,0,.82,3.44A2.89,2.89,0,0,0,604.83,707.21Z"/><path class="cls-2" d="M628.1,681.39v31.15h-5.87V688.28l-3.79,1.44v-6.24l4.65-2.09Z"/><path class="cls-2" d="M651.27,681.39v3.89l-7,27.26h-6.36l6.77-25.5h-5.36v4.69h-5.87V681.39Z"/></svg>